<?xml version="1.0" encoding="UTF-8"?>
<!DOCTYPE svg PUBLIC "-//W3C//DTD SVG 1.1//EN" "http://www.w3.org/Graphics/SVG/1.1/DTD/svg11.dtd">
<svg xmlns="http://www.w3.org/2000/svg" version="1.1" width="225px" height="225px" style="shape-rendering:geometricPrecision; text-rendering:geometricPrecision; image-rendering:optimizeQuality; fill-rule:evenodd; clip-rule:evenodd" xmlns:xlink="http://www.w3.org/1999/xlink">
<g><path style="opacity:1" fill="#fefefe" d="M -0.5,-0.5 C 33.5,-0.5 67.5,-0.5 101.5,-0.5C 67.8049,6.69345 46.6382,27.0268 38,60.5C 35.9647,75.0966 37.9647,89.0966 44,102.5C 53.413,121.674 64.5796,139.674 77.5,156.5C 56.3292,164.298 34.9959,171.798 13.5,179C 9.70842,181.053 8.54176,184.219 10,188.5C 10.9025,189.701 12.0692,190.535 13.5,191C 45.6245,202.096 77.6245,213.262 109.5,224.5C 72.8333,224.5 36.1667,224.5 -0.5,224.5C -0.5,149.5 -0.5,74.5 -0.5,-0.5 Z"/></g>
<g><path style="opacity:1" fill="#3d6889" d="M 101.5,-0.5 C 107.833,-0.5 114.167,-0.5 120.5,-0.5C 156.179,6.01135 178.013,27.0114 186,62.5C 188.035,76.4519 186.035,89.7852 180,102.5C 170.22,121.428 159.053,139.428 146.5,156.5C 168.277,164.816 190.277,172.649 212.5,180C 216.317,186.246 214.651,190.246 207.5,192C 175.956,202.569 144.623,213.402 113.5,224.5C 112.167,224.5 110.833,224.5 109.5,224.5C 77.6245,213.262 45.6245,202.096 13.5,191C 12.0692,190.535 10.9025,189.701 10,188.5C 8.54176,184.219 9.70842,181.053 13.5,179C 34.9959,171.798 56.3292,164.298 77.5,156.5C 64.5796,139.674 53.413,121.674 44,102.5C 37.9647,89.0966 35.9647,75.0966 38,60.5C 46.6382,27.0268 67.8049,6.69345 101.5,-0.5 Z"/></g>
<g><path style="opacity:1" fill="#fefefe" d="M 120.5,-0.5 C 155.167,-0.5 189.833,-0.5 224.5,-0.5C 224.5,74.5 224.5,149.5 224.5,224.5C 187.5,224.5 150.5,224.5 113.5,224.5C 144.623,213.402 175.956,202.569 207.5,192C 214.651,190.246 216.317,186.246 212.5,180C 190.277,172.649 168.277,164.816 146.5,156.5C 159.053,139.428 170.22,121.428 180,102.5C 186.035,89.7852 188.035,76.4519 186,62.5C 178.013,27.0114 156.179,6.01135 120.5,-0.5 Z"/></g>
<g><path style="opacity:1" fill="#72cff3" d="M 99.5,12.5 C 138.813,9.33893 163.646,26.6723 174,64.5C 175.714,75.704 174.048,86.3707 169,96.5C 153.508,126.316 134.508,153.65 112,178.5C 89.4923,153.65 70.4923,126.316 55,96.5C 43.7938,65.0727 51.9605,39.906 79.5,21C 85.9196,17.282 92.5863,14.4487 99.5,12.5 Z"/></g>
<g><path style="opacity:1" fill="#3d6889" d="M 103.5,39.5 C 131.978,37.8106 145.144,51.1439 143,79.5C 136.105,97.7046 122.938,105.205 103.5,102C 84.0215,94.2109 76.8548,80.0443 82,59.5C 86.1713,49.4914 93.338,42.8247 103.5,39.5 Z"/></g>
<g><path style="opacity:1" fill="#fdfdfd" d="M 106.5,51.5 C 123.979,50.8113 132.145,59.1446 131,76.5C 124.332,90.1672 114.165,93.6672 100.5,87C 89.8396,76.2918 89.8396,65.6251 100.5,55C 102.432,53.5415 104.432,52.3748 106.5,51.5 Z"/></g>
<g><path style="opacity:1" fill="#fcfcfd" d="M 83.5,167.5 C 84.9778,167.238 86.3112,167.571 87.5,168.5C 93.9384,177.108 100.938,185.275 108.5,193C 110.833,193.667 113.167,193.667 115.5,193C 123.293,184.553 130.96,176.053 138.5,167.5C 155.263,173.048 171.93,178.881 188.5,185C 162.951,194.128 137.284,202.961 111.5,211.5C 85.9511,203.151 60.6177,194.318 35.5,185C 51.6257,179.239 67.6257,173.405 83.5,167.5 Z"/></g>
</svg>
